<?xml version="1.0" encoding="utf-8"?><svg viewBox="0 0 1000 1000" xmlns="http://www.w3.org/2000/svg" xmlns:xlink="http://www.w3.org/1999/xlink"><style>:root>svg{display:none}:root>svg:target{display:block}</style><svg viewBox="0 0 1000 1000" id="resizer" xmlns="http://www.w3.org/2000/svg"><path d="M796.8 990 990 796.8v-82.9L713.9 990h82.9zm-351.9 0L990 444.9V362L361.9 990h83zM10 990h82.9L990 92.9V10L10 990z"/></svg><svg viewBox="0 0 511.995 511.995" xml:space="preserve" id="right" xmlns="http://www.w3.org/2000/svg"><path d="M381.039 248.62 146.373 3.287C142.29-.942 135.54-1.13 131.29 2.954c-4.25 4.073-4.396 10.823-.333 15.083L358.56 255.995 130.956 493.954c-4.063 4.26-3.917 11.01.333 15.083a10.63 10.63 0 0 0 7.375 2.958 10.65 10.65 0 0 0 7.708-3.292L381.039 263.37c3.938-4.125 3.938-10.625 0-14.75z"/></svg></svg>