<?xml version="1.0" encoding="UTF-8" standalone="no"?>
<svg
   xmlns:dc="http://purl.org/dc/elements/1.1/"
   xmlns:cc="http://creativecommons.org/ns#"
   xmlns:rdf="http://www.w3.org/1999/02/22-rdf-syntax-ns#"
   xmlns:svg="http://www.w3.org/2000/svg"
   xmlns="http://www.w3.org/2000/svg"
   xmlns:sodipodi="http://sodipodi.sourceforge.net/DTD/sodipodi-0.dtd"
   xmlns:inkscape="http://www.inkscape.org/namespaces/inkscape"
   version="1.1"
   width="592.21368pt"
   height="475.49014pt"
   viewBox="0 0 592.21368 475.49014"
   id="svg2"
   inkscape:version="0.91 r13725"
   sodipodi:docname="MRIresults-CDCpd.svg">
  <metadata
     id="metadata1659">
    <rdf:RDF>
      <cc:Work
         rdf:about="">
        <dc:format>image/svg+xml</dc:format>
        <dc:type
           rdf:resource="http://purl.org/dc/dcmitype/StillImage" />
        <dc:title></dc:title>
        <dc:creator>
          <cc:Agent>
            <dc:title>CDC</dc:title>
          </cc:Agent>
        </dc:creator>
        <dc:description>isolated by j4p4n</dc:description>
        <cc:license
           rdf:resource="http://creativecommons.org/publicdomain/zero/1.0/" />
      </cc:Work>
      <cc:License
         rdf:about="http://creativecommons.org/publicdomain/zero/1.0/">
        <cc:permits
           rdf:resource="http://creativecommons.org/ns#Reproduction" />
        <cc:permits
           rdf:resource="http://creativecommons.org/ns#Distribution" />
        <cc:permits
           rdf:resource="http://creativecommons.org/ns#DerivativeWorks" />
      </cc:License>
    </rdf:RDF>
  </metadata>
  <defs
     id="defs1657">
    <clipPath
       id="cp0">
      <path
         transform="matrix(1,0,0,-1,0,792)"
         d="m 16.9125,22.5552 573.0875,0 0,756.6408 -573.0875,0 z"
         id="path9"
         inkscape:connector-curvature="0" />
    </clipPath>
    <clipPath
       id="cp90">
      <path
         transform="matrix(1,0,0,-1,0,792)"
         d="m 49.3634,309.19 539.9996,0 0,316.363 -539.9996,0 z"
         id="path985"
         inkscape:connector-curvature="0" />
    </clipPath>
    <clipPath
       id="cp114">
      <path
         transform="matrix(1,0,0,-1,0,792)"
         d="m 0,0 612,0 0,792 -612,0 z"
         id="path1611"
         inkscape:connector-curvature="0" />
    </clipPath>
    <clipPath
       id="cp113">
      <path
         inkscape:connector-curvature="0"
         id="path1598"
         d="m 0,0 612,0 0,792 -612,0 z"
         transform="matrix(1,0,0,-1,0,792)" />
    </clipPath>
    <clipPath
       id="cp111">
      <path
         inkscape:connector-curvature="0"
         id="path1576"
         d="m 0,0 612,0 0,792 -612,0 z"
         transform="matrix(1,0,0,-1,0,792)" />
    </clipPath>
    <clipPath
       id="cp112">
      <path
         inkscape:connector-curvature="0"
         id="path1587"
         d="m 49.62,646.051 540,0 0,32.108 -540,0 z"
         transform="matrix(1,0,0,-1,0,792)" />
    </clipPath>
  </defs>
  <sodipodi:namedview
     pagecolor="#ffffff"
     bordercolor="#666666"
     borderopacity="1"
     objecttolerance="10"
     gridtolerance="10"
     guidetolerance="10"
     inkscape:pageopacity="0"
     inkscape:pageshadow="2"
     inkscape:window-width="1916"
     inkscape:window-height="1035"
     id="namedview1655"
     showgrid="false"
     fit-margin-top="0"
     fit-margin-left="0"
     fit-margin-right="0"
     fit-margin-bottom="0"
     inkscape:zoom="0.74613281"
     inkscape:cx="194.04284"
     inkscape:cy="130.1981"
     inkscape:window-x="4"
     inkscape:window-y="1"
     inkscape:window-maximized="1"
     inkscape:current-layer="svg2" />
  <g
     data-name="P"
     id="Layer-1"
     transform="translate(-177.00302,-187.7219)" />
  <g
     data-name="P"
     id="g18"
     transform="translate(-177.00302,-187.7219)" />
  <g
     data-name="H1"
     id="g36"
     transform="translate(-177.00302,-187.7219)" />
  <g
     data-name="P"
     id="g72"
     transform="translate(-177.00302,-187.7219)" />
  <g
     data-name="H3"
     id="g80"
     transform="translate(-177.00302,-187.7219)" />
  <g
     data-name="H3"
     id="g88"
     transform="translate(-177.00302,-187.7219)" />
  <g
     data-name="H3"
     id="g96"
     transform="translate(-177.00302,-187.7219)" />
  <g
     data-name="H3"
     id="g104"
     transform="translate(-177.00302,-187.7219)" />
  <g
     data-name="H4"
     id="g112"
     transform="translate(-177.00302,-187.7219)" />
  <g
     data-name="H4"
     id="g120"
     transform="translate(-177.00302,-187.7219)" />
  <g
     data-name="H4"
     id="g128"
     transform="translate(-177.00302,-187.7219)" />
  <g
     data-name="P"
     id="g144"
     transform="translate(-177.00302,-187.7219)" />
  <g
     data-name="Span"
     id="g923"
     transform="translate(-177.00302,-187.7219)">
    <g
       data-name="Span"
       id="Layer-3" />
    <text
       style="font-size:10px;font-family:MyriadPro;fill:#f1563f"
       id="text926"
       font-size="10"
       transform="translate(0,792)"
       xml:space="preserve"><tspan
         id="tspan928"
         x="64.910004"
         y="-356.00851" /></text>
  </g>
  <text
     style="font-size:10px;font-family:Wingdings2;fill:#f1563f"
     id="text934"
     font-size="10"
     xml:space="preserve"
     y="604.27808"
     x="-177.00302"><tspan
       id="tspan936"
       x="-115.70622"
       y="248.26959"></tspan></text>
  <g
     data-name="Span"
     id="g948"
     transform="translate(-177.00302,-187.7219)">
    <g
       data-name="Span"
       id="g950" />
    <text
       style="font-size:10px;font-family:MyriadPro;fill:#f1563f"
       id="text952"
       font-size="10"
       transform="translate(0,792)"
       xml:space="preserve"><tspan
         id="tspan954"
         x="64.910004"
         y="-332.00851" /></text>
  </g>
  <text
     style="font-size:10px;font-family:Wingdings2;fill:#f1563f"
     id="text960"
     font-size="10"
     xml:space="preserve"
     y="604.27808"
     x="-177.00302"><tspan
       id="tspan962"
       x="-115.70622"
       y="272.26959"></tspan></text>
  <g
     data-name="P"
     id="g991"
     transform="translate(-177.00302,-187.7219)" />
  <g
     data-name="P"
     id="g993"
     transform="translate(-177.00302,-187.7219)" />
  <g
     data-name="Span"
     id="g1001"
     transform="translate(-177.00302,-187.7219)">
    <g
       data-name="Span"
       id="g1003" />
    <text
       style="font-size:10px;font-family:MyriadPro;fill:#f1563f"
       id="text1005"
       font-size="10"
       transform="translate(0,792)"
       xml:space="preserve"><tspan
         id="tspan1007"
         x="374.46078"
         y="-484.39111" /></text>
  </g>
  <g
     data-name="Span"
     id="g1009"
     transform="translate(-177.00302,-187.7219)" />
  <g
     data-name="Span"
     id="g1011"
     transform="translate(-177.00302,-187.7219)">
    <text
       style="font-size:10px;font-family:Wingdings2;fill:#f1563f"
       id="text1013"
       font-size="10"
       transform="translate(0,792)"
       xml:space="preserve"><tspan
         id="tspan1015"
         x="370.8475"
         y="-484.39111"></tspan></text>
  </g>
  <g
     data-name="Span"
     id="g1021"
     transform="translate(-177.00302,-187.7219)">
    <g
       data-name="Span"
       id="g1023" />
    <text
       style="font-size:10px;font-family:MyriadPro;fill:#f1563f"
       id="text1025"
       font-size="10"
       transform="translate(0,792)"
       xml:space="preserve"><tspan
         id="tspan1027"
         x="374.46078"
         y="-472.39111" /></text>
  </g>
  <g
     data-name="Span"
     id="g1029"
     transform="translate(-177.00302,-187.7219)" />
  <g
     data-name="Span"
     id="g1031"
     transform="translate(-177.00302,-187.7219)">
    <text
       style="font-size:10px;font-family:Wingdings2;fill:#f1563f"
       id="text1033"
       font-size="10"
       transform="translate(0,792)"
       xml:space="preserve"><tspan
         id="tspan1035"
         x="370.8475"
         y="-472.39111"></tspan></text>
  </g>
  <g
     data-name="Span"
     id="g1041"
     transform="translate(-177.00302,-187.7219)">
    <g
       data-name="Span"
       id="g1043" />
    <text
       style="font-size:10px;font-family:MyriadPro;fill:#f1563f"
       id="text1045"
       font-size="10"
       transform="translate(0,792)"
       xml:space="preserve"><tspan
         id="tspan1047"
         x="374.46078"
         y="-460.39111" /></text>
  </g>
  <g
     data-name="Span"
     id="g1049"
     transform="translate(-177.00302,-187.7219)" />
  <g
     data-name="Span"
     id="g1051"
     transform="translate(-177.00302,-187.7219)">
    <text
       style="font-size:10px;font-family:Wingdings2;fill:#f1563f"
       id="text1053"
       font-size="10"
       transform="translate(0,792)"
       xml:space="preserve"><tspan
         id="tspan1055"
         x="370.8475"
         y="-460.39111"></tspan></text>
  </g>
  <g
     data-name="Span"
     id="g1061"
     transform="translate(-177.00302,-187.7219)">
    <g
       data-name="Span"
       id="g1063" />
    <text
       style="font-size:10px;font-family:MyriadPro;fill:#f1563f"
       id="text1065"
       font-size="10"
       transform="translate(0,792)"
       xml:space="preserve"><tspan
         id="tspan1067"
         x="374.46078"
         y="-448.39111" /></text>
  </g>
  <g
     data-name="Span"
     id="g1069"
     transform="translate(-177.00302,-187.7219)" />
  <g
     data-name="Span"
     id="g1071"
     transform="translate(-177.00302,-187.7219)">
    <text
       style="font-size:10px;font-family:Wingdings2;fill:#f1563f"
       id="text1073"
       font-size="10"
       transform="translate(0,792)"
       xml:space="preserve"><tspan
         id="tspan1075"
         x="370.8475"
         y="-448.39111"></tspan></text>
  </g>
  <g
     data-name="Span"
     id="g1081"
     transform="translate(-177.00302,-187.7219)">
    <g
       data-name="Span"
       id="g1083" />
    <text
       style="font-size:10px;font-family:MyriadPro;fill:#f1563f"
       id="text1085"
       font-size="10"
       transform="translate(0,792)"
       xml:space="preserve"><tspan
         id="tspan1087"
         x="374.46078"
         y="-436.39111" /></text>
  </g>
  <g
     data-name="Span"
     id="g1089"
     transform="translate(-177.00302,-187.7219)" />
  <g
     data-name="Span"
     id="g1091"
     transform="translate(-177.00302,-187.7219)">
    <text
       style="font-size:10px;font-family:Wingdings2;fill:#f1563f"
       id="text1093"
       font-size="10"
       transform="translate(0,792)"
       xml:space="preserve"><tspan
         id="tspan1095"
         x="370.8475"
         y="-436.39111"></tspan></text>
  </g>
  <g
     data-name="Span"
     id="g1101"
     transform="translate(-177.00302,-187.7219)">
    <g
       data-name="Span"
       id="g1103" />
    <text
       style="font-size:10px;font-family:MyriadPro;fill:#f1563f"
       id="text1105"
       font-size="10"
       transform="translate(0,792)"
       xml:space="preserve"><tspan
         id="tspan1107"
         x="374.46078"
         y="-424.39111" /></text>
  </g>
  <g
     data-name="Span"
     id="g1109"
     transform="translate(-177.00302,-187.7219)" />
  <g
     data-name="Span"
     id="g1111"
     transform="translate(-177.00302,-187.7219)">
    <text
       style="font-size:10px;font-family:Wingdings2;fill:#f1563f"
       id="text1113"
       font-size="10"
       transform="translate(0,792)"
       xml:space="preserve"><tspan
         id="tspan1115"
         x="370.8475"
         y="-424.39111"></tspan></text>
  </g>
  <g
     data-name="Figure"
     id="g1121"
     transform="matrix(5,0,0,5,-2069.4424,-1889.59)">
    <g
       data-name="PlacedPDF"
       id="g1123">
      <clipPath
         id="cp91">
        <path
           inkscape:connector-curvature="0"
           id="path1126"
           d="m 474.007,411.423 -13.628,-68.904 c -0.352,-1.78 0.815,-3.524 2.595,-3.878 L 514.762,328.4 c 1.78,-0.353 3.525,0.815 3.876,2.596 l 13.63,68.904 c 0.354,1.78 -0.815,3.526 -2.596,3.877 l -51.787,10.243 c -0.214,0.042 -0.427,0.062 -0.638,0.062 -1.541,0 -2.929,-1.093 -3.24,-2.659"
           transform="matrix(1,0,0,-1,0,792)" />
      </clipPath>
      <g
         id="g1128"
         clip-path="url(#cp91)">
        <path
           style="fill:#1b2b3a"
           inkscape:connector-curvature="0"
           id="path1130"
           d="M 0,0 C -0.569,-2.879 -3.39,-4.77 -6.27,-4.201 L -71.186,8.625 c -2.88,0.569 -4.77,3.39 -4.201,6.27 l 12.826,64.916 c 0.568,2.88 3.39,4.77 6.269,4.201 L 8.625,71.186 c 2.879,-0.569 4.77,-3.39 4.201,-6.269 z"
           transform="matrix(1,0,0,-1,529.0199,460.7617)" />
      </g>
      <clipPath
         id="cp92">
        <path
           inkscape:connector-curvature="0"
           id="path1133"
           d="m 468.658,338.882 39.682,-7.84 14.285,72.298 -39.683,7.839 z"
           transform="matrix(1,0,0,-1,0,792)" />
      </clipPath>
      <g
         id="g1135"
         clip-path="url(#cp92)">
        <path
           style="fill:none;stroke:#436c84;stroke-width:0.97500002;stroke-linecap:round;stroke-linejoin:round"
           inkscape:connector-curvature="0"
           id="path1137"
           d="m 0,0 c -8.375,1.655 -13.227,5.139 -11.703,12.853 1.524,7.713 9.548,12.623 17.923,10.968 8.374,-1.654 12.741,-7.825 11.532,-13.947 l 1.073,-3.446 -3.387,-3.02 c 0,0 -0.688,-1.569 0.813,-1.865 l 0.144,-4.782 c 0,0 -0.066,-1.169 -0.747,-1.626 -0.682,-0.456 -1.063,-1.066 -0.859,-1.956 0.201,-0.894 0.546,-4.177 -2.36,-3.085 -2.905,1.096 -9.516,3.3 -9.516,3.3 0,0 -3.208,0.778 -2.932,3.844 0.276,3.068 0.641,6.354 0.641,6.354 0,0 0.059,1.787 2.029,1.442 C 4.623,4.694 4.507,3.863 4.372,2.707 4.24,1.552 3.388,-3.247 6.032,-3.863"
           transform="matrix(1,0,0,-1,494.7251,410.9475)" />
        <path
           style="fill:none;stroke:#436c84;stroke-width:0.97500002;stroke-linecap:round;stroke-linejoin:round"
           inkscape:connector-curvature="0"
           id="path1139"
           d="M 0,0 -9.553,2.643"
           transform="matrix(1,0,0,-1,510.5245,414.3281)" />
        <path
           style="fill:none;stroke:#436c84;stroke-width:0.97500002;stroke-linecap:round;stroke-linejoin:round"
           inkscape:connector-curvature="0"
           id="path1141"
           d="M 0,0 C -0.281,-1.422 0.961,-3.762 -2.041,-3.169 -3.433,-2.894 -4.769,-0.942 -4.357,1.142 -3.945,3.23 -1.918,4.59 0.17,4.178 3.077,3.604 0.264,1.336 0,0 Z"
           transform="matrix(1,0,0,-1,508.4193,402.1925)" />
        <path
           style="fill:none;stroke:#436c84;stroke-width:0.97500002;stroke-linecap:round;stroke-linejoin:round"
           inkscape:connector-curvature="0"
           id="path1143"
           d="M 0,0 -0.075,-0.378 0,0 Z"
           transform="matrix(1,0,0,-1,487.4526,431.6326)" />
        <path
           style="fill:none;stroke:#436c84;stroke-width:0.97500002;stroke-linecap:round;stroke-linejoin:round"
           inkscape:connector-curvature="0"
           id="path1145"
           d="M 0,0 C -0.594,4.454 -1.834,9.93 -0.562,16.366 1.3,25.79 8.894,29.953 8.894,29.953 l 4.881,9.906 0.205,1.036 c -4.626,3.159 -7.168,8.083 -5.919,14.404 1.892,9.573 10.997,14.844 20.57,12.953 6.766,-1.337 11.913,-6.107 13.651,-12.325 l 0.266,-1.417 c 0.1,-0.34 -0.918,-2.341 -0.918,-2.341 l 2.677,-7.786 c 0.057,-0.198 0.069,-0.41 0.026,-0.627 -0.144,-0.727 -0.794,-1.043 -1.575,-1.054 L 40.267,42.531 38.887,35.546 38.336,32.76 C 37.992,31.018 36.3,29.883 34.556,30.228 l -5.559,1.763 -2.523,-5.511 c 0,0 10.097,-14.346 9.307,-26.735 -0.191,-2.987 -0.457,-5.22 -0.75,-6.883"
           transform="matrix(1,0,0,-1,472.9254,453.2465)" />
      </g>
      <clipPath
         id="cp93">
        <path
           inkscape:connector-curvature="0"
           id="path1148"
           d="m 474.007,411.423 -13.628,-68.904 c -0.352,-1.78 0.815,-3.524 2.595,-3.878 L 514.762,328.4 c 1.78,-0.353 3.525,0.815 3.876,2.596 l 13.63,68.904 c 0.354,1.78 -0.815,3.526 -2.596,3.877 l -51.787,10.243 c -0.214,0.042 -0.427,0.062 -0.638,0.062 -1.541,0 -2.929,-1.093 -3.24,-2.659"
           transform="matrix(1,0,0,-1,0,792)" />
      </clipPath>
      <g
         id="g1150"
         clip-path="url(#cp93)">
        <path
           style="fill:none;stroke:#436c84;stroke-width:1.06700003;stroke-linecap:round;stroke-linejoin:round"
           inkscape:connector-curvature="0"
           id="path1152"
           d="m 0,0 c 0.158,-0.031 0.272,-0.111 0.34,-0.237 0.147,-0.273 0.046,-0.605 -0.037,-0.87 -0.017,-0.057 -0.041,-0.134 -0.057,-0.2 0.005,0.004 0.008,0.003 0.015,0.003 0.163,-0.007 0.508,0.501 0.737,0.835 C 1.397,0.12 1.81,0.727 2.301,0.63 2.346,0.621 2.389,0.608 2.431,0.589 3.031,0.297 3.019,-0.314 3.011,-0.719 3.008,-0.894 3.005,-1.058 3.039,-1.195 3.11,-1.398 3.83,-1.838 4.641,-1.998 4.93,-2.055 5.178,-2.064 5.322,-2.015 5.52,-1.951 5.839,-1.534 6.064,-0.867 6.317,-0.113 6.338,0.622 6.116,1.01 6.025,1.172 5.876,1.271 5.648,1.316 5.338,1.377 4.947,1.323 4.57,1.274 4.205,1.228 3.861,1.181 3.579,1.237 3.385,1.275 3.237,1.359 3.127,1.489 2.794,1.889 2.864,2.369 2.906,2.654 2.915,2.714 2.928,2.8 2.929,2.847 2.912,2.855 2.88,2.868 2.822,2.88 2.559,2.932 2.347,2.652 2.022,2.189 1.774,1.836 1.518,1.468 1.174,1.283 0.986,1.178 0.773,1.153 0.526,1.202 l -0.001,0 C 0.217,1.263 -0.097,1.435 -0.376,1.583 -0.582,1.693 -0.777,1.796 -0.901,1.821 -0.909,1.822 -0.915,1.823 -0.921,1.824 -1.126,1.587 -1.314,0.9 -1.164,0.248 -1.152,0.188 -1.125,0.075 -0.896,0.03 -0.756,0.002 -0.587,0.01 -0.424,0.016 -0.27,0.02 -0.124,0.024 0,0 Z"
           transform="matrix(1,0,0,-1,488.1819,416.7308)" />
        <path
           style="fill:none;stroke:#8bcff3;stroke-width:1.06700003;stroke-linecap:round;stroke-linejoin:round"
           inkscape:connector-curvature="0"
           id="path1154"
           d="M 0,0 C 0.12,-0.024 0.213,-0.085 0.28,-0.178 0.463,-0.433 0.388,-0.8 0.328,-1.092 0.313,-1.169 0.289,-1.287 0.28,-1.364 c 0.014,-10e-4 0.032,0.003 0.054,0.005 0.199,0.023 0.517,0.618 0.751,1.054 0.394,0.734 0.8,1.495 1.378,1.381 C 2.48,1.072 2.499,1.068 2.518,1.062 3.196,0.857 3.249,0.232 3.285,-0.223 3.301,-0.416 3.316,-0.599 3.371,-0.747 3.42,-0.858 3.825,-1.133 4.592,-1.285 5.186,-1.402 5.764,-1.394 6.031,-1.264 6.252,-1.156 6.568,-0.638 6.747,0.137 6.947,1.009 6.884,1.826 6.589,2.215 6.493,2.345 6.361,2.425 6.187,2.459 5.808,2.534 5.305,2.389 4.817,2.25 4.353,2.116 3.913,1.991 3.57,2.058 3.434,2.085 3.316,2.143 3.219,2.229 2.82,2.597 2.844,3.112 2.858,3.425 2.861,3.504 2.867,3.625 2.855,3.666 2.852,3.665 2.835,3.677 2.798,3.684 2.772,3.689 2.742,3.689 2.71,3.691 2.395,3.706 2.186,3.355 1.871,2.786 1.638,2.366 1.397,1.93 1.045,1.673 0.786,1.488 0.47,1.438 0.048,1.521 -0.199,1.57 -0.457,1.659 -0.684,1.737 -0.873,1.805 -1.05,1.868 -1.189,1.895 -1.269,1.911 -1.313,1.911 -1.335,1.91 -1.548,1.618 -1.692,0.806 -1.447,0.102 c 0.029,-0.086 0.079,-0.166 0.238,-0.198 0.181,-0.035 0.424,0.011 0.639,0.051 C -0.352,-0.006 -0.162,0.032 0,0 Z"
           transform="matrix(1,0,0,-1,487.2234,422.9478)" />
        <path
           style="fill:none;stroke:#436c84;stroke-width:1.06700003;stroke-linecap:round;stroke-linejoin:round"
           inkscape:connector-curvature="0"
           id="path1156"
           d="M 0,0 -0.075,-0.377 0,0 Z"
           transform="matrix(1,0,0,-1,487.6053,431.6188)" />
        <path
           style="fill:none;stroke:#8bcff3;stroke-width:1.06700003;stroke-linecap:round;stroke-linejoin:round"
           inkscape:connector-curvature="0"
           id="path1158"
           d="m 0,0 c 0.08,-0.016 0.15,-0.053 0.207,-0.106 0.23,-0.221 0.204,-0.62 0.184,-0.941 -0.006,-0.103 -0.017,-0.267 -0.008,-0.352 0.02,0.002 0.052,0.01 0.097,0.023 0.234,0.08 0.5,0.81 0.695,1.341 0.314,0.864 0.67,1.843 1.344,1.793 C 3.29,1.7 3.435,1.051 3.544,0.583 3.593,0.377 3.638,0.181 3.726,0.026 3.749,-0.012 3.892,-0.13 4.284,-0.208 5.138,-0.377 6.365,-0.226 6.807,0.099 7.088,0.308 7.331,1.012 7.402,1.816 7.489,2.815 7.288,3.693 6.89,4.052 6.801,4.134 6.699,4.185 6.578,4.209 6.115,4.3 5.462,3.964 4.884,3.667 4.314,3.373 3.776,3.098 3.356,3.181 3.277,3.196 3.204,3.223 3.139,3.262 2.65,3.551 2.6,4.081 2.566,4.432 2.557,4.526 2.542,4.685 2.519,4.717 2.517,4.717 2.469,4.745 2.324,4.718 1.963,4.655 1.773,4.222 1.505,3.514 1.312,3.009 1.115,2.489 0.771,2.136 0.28,1.634 -0.471,1.723 -1.134,1.804 -1.396,1.833 -1.79,1.88 -1.91,1.825 -2.115,1.458 -2.159,0.513 -1.763,-0.211 c 0.052,-0.097 0.118,-0.146 0.214,-0.165 0.221,-0.044 0.54,0.086 0.822,0.199 C -0.448,-0.06 -0.204,0.04 0,0 Z"
           transform="matrix(1,0,0,-1,487.2515,430.2209)" />
        <path
           style="fill:none;stroke:#8bcff3;stroke-width:1.06700003;stroke-linecap:round;stroke-linejoin:round"
           inkscape:connector-curvature="0"
           id="path1160"
           d="M 0,0 C 0.074,-0.015 0.14,-0.044 0.195,-0.094 0.445,-0.31 0.433,-0.719 0.422,-1.079 0.419,-1.21 0.412,-1.421 0.435,-1.505 0.456,-1.502 0.498,-1.497 0.569,-1.47 0.841,-1.359 1.1,-0.571 1.306,0.064 1.63,1.06 1.968,2.088 2.688,2.072 2.767,2.071 2.843,2.062 2.911,2.049 3.548,1.923 3.708,1.34 3.837,0.873 3.899,0.646 3.958,0.429 4.064,0.265 4.067,0.261 4.15,0.133 4.56,0.052 5.482,-0.13 6.99,0.107 7.494,0.516 7.804,0.767 8.054,1.563 8.102,2.457 8.16,3.569 7.901,4.53 7.442,4.904 7.347,4.982 7.241,5.032 7.121,5.056 6.596,5.16 5.863,4.741 5.218,4.372 4.559,3.993 3.99,3.668 3.525,3.76 3.458,3.773 3.393,3.799 3.332,3.827 2.798,4.109 2.724,4.676 2.673,5.052 2.63,5.38 2.61,5.384 2.566,5.393 2.534,5.399 2.472,5.403 2.363,5.375 1.949,5.28 1.754,4.787 1.48,3.987 1.29,3.428 1.094,2.85 0.732,2.451 0.222,1.888 -0.603,1.94 -1.331,1.988 -1.634,2.008 -2.09,2.038 -2.212,1.957 -2.439,1.535 -2.459,0.484 -1.977,-0.317 c 0.061,-0.097 0.135,-0.155 0.237,-0.175 0.253,-0.05 0.615,0.119 0.935,0.268 C -0.494,-0.079 -0.225,0.044 0,0 Z"
           transform="matrix(1,0,0,-1,487.7823,437.3961)" />
        <path
           style="fill:none;stroke:#436c84;stroke-width:1.06700003;stroke-linecap:round;stroke-linejoin:round"
           inkscape:connector-curvature="0"
           id="path1162"
           d="m 0,0 c 0.075,-0.015 0.141,-0.045 0.197,-0.095 0.252,-0.219 0.241,-0.637 0.231,-1.002 -0.006,-0.138 -0.01,-0.36 0.013,-0.445 0.02,0.001 0.066,0.006 0.146,0.036 0.282,0.115 0.548,0.926 0.76,1.577 0.331,1.017 0.675,2.069 1.408,2.051 0.08,0 0.157,-0.009 0.228,-0.023 C 3.632,1.971 3.794,1.377 3.927,0.898 3.99,0.665 4.048,0.444 4.16,0.276 4.19,0.224 4.334,0.122 4.674,0.055 5.618,-0.131 7.165,0.114 7.683,0.528 8.004,0.787 8.261,1.609 8.309,2.528 8.358,3.437 8.203,4.572 7.629,5.043 7.532,5.123 7.425,5.174 7.3,5.199 6.757,5.306 6.006,4.876 5.343,4.498 4.671,4.111 4.088,3.777 3.617,3.87 3.546,3.884 3.48,3.909 3.419,3.938 2.875,4.226 2.798,4.803 2.748,5.184 2.701,5.529 2.681,5.533 2.633,5.542 2.598,5.549 2.535,5.553 2.422,5.525 1.994,5.427 1.792,4.921 1.512,4.095 1.319,3.527 1.115,2.935 0.747,2.53 0.226,1.952 -0.617,2.007 -1.361,2.056 -1.674,2.075 -2.145,2.107 -2.269,2.022 -2.504,1.59 -2.526,0.502 -2.03,-0.32 c 0.064,-0.104 0.142,-0.165 0.248,-0.186 0.261,-0.052 0.633,0.122 0.961,0.277 C -0.502,-0.082 -0.228,0.045 0,0 Z"
           transform="matrix(1,0,0,-1,488.1742,444.5004)" />
        <path
           style="fill:none;stroke:#436c84;stroke-width:1.06700003;stroke-linecap:round;stroke-linejoin:round"
           inkscape:connector-curvature="0"
           id="path1164"
           d="m 0,0 c 0.073,-0.014 0.136,-0.044 0.19,-0.093 0.262,-0.215 0.255,-0.643 0.248,-1.019 0,-0.14 -0.005,-0.391 0.025,-0.47 0.02,-10e-4 0.067,0 0.162,0.04 0.295,0.126 0.56,0.973 0.772,1.657 C 1.725,1.169 2.063,2.258 2.816,2.257 2.909,2.259 2.997,2.249 3.077,2.233 3.725,2.105 3.901,1.508 4.039,1.026 4.109,0.786 4.176,0.558 4.29,0.383 4.3,0.37 4.387,0.249 4.781,0.171 5.769,-0.024 7.402,0.26 7.957,0.722 8.288,0.999 8.545,1.86 8.583,2.814 8.619,3.759 8.442,4.936 7.836,5.41 7.737,5.488 7.629,5.539 7.506,5.563 6.938,5.675 6.154,5.208 5.464,4.794 4.765,4.377 4.162,4.019 3.67,4.116 3.606,4.129 3.543,4.148 3.486,4.176 2.922,4.459 2.833,5.047 2.777,5.441 2.724,5.782 2.702,5.805 2.648,5.816 2.612,5.823 2.544,5.826 2.421,5.794 1.973,5.681 1.769,5.149 1.489,4.287 1.295,3.695 1.096,3.082 0.722,2.652 0.193,2.052 -0.68,2.087 -1.45,2.12 -1.78,2.136 -2.276,2.156 -2.399,2.067 -2.639,1.606 -2.648,0.476 -2.117,-0.37 c 0.065,-0.106 0.147,-0.168 0.256,-0.19 0.275,-0.054 0.665,0.138 1.007,0.304 C -0.523,-0.092 -0.236,0.047 0,0 Z"
           transform="matrix(1,0,0,-1,488.9145,451.8254)" />
        <path
           style="fill:none;stroke:#436c84;stroke-width:1.06700003;stroke-linecap:round;stroke-linejoin:round"
           inkscape:connector-curvature="0"
           id="path1166"
           d="M 0,0 C 0.015,-0.003 0.064,-0.015 0.179,0.012 0.502,0.081 0.884,0.916 1.191,1.586 1.661,2.609 2.148,3.67 2.898,3.522 3.771,3.341 3.878,2.596 3.965,1.997 4.004,1.732 4.042,1.478 4.137,1.27 4.188,1.153 4.51,0.894 5.352,0.727 6.346,0.531 7.446,0.591 7.912,0.866 8.286,1.087 8.667,1.937 8.832,2.933 8.996,3.91 8.974,5.178 8.421,5.804 8.286,5.955 8.12,6.049 7.911,6.09 7.358,6.2 6.627,5.92 5.922,5.652 5.272,5.404 4.657,5.166 4.192,5.258 4.062,5.284 3.944,5.336 3.846,5.413 3.318,5.818 3.308,6.447 3.301,6.862 3.296,7.284 3.277,7.288 3.158,7.311 3.11,7.321 3.049,7.321 2.979,7.318 2.502,7.293 2.225,6.778 1.822,5.931 1.547,5.353 1.263,4.757 0.831,4.392 0.343,3.979 -0.323,4.046 -0.848,4.149 c -0.196,0.039 -0.395,0.087 -0.583,0.137 -0.166,0.04 -0.327,0.08 -0.477,0.109 -0.394,0.078 -0.493,0.03 -0.508,0.021 -0.3,-0.405 -0.471,-1.608 -0.039,-2.616 0.069,-0.165 0.178,-0.252 0.347,-0.286 0.272,-0.054 0.639,0.05 0.961,0.139 0.309,0.088 0.578,0.164 0.792,0.121 0.114,-0.022 0.206,-0.077 0.277,-0.16 C 0.153,1.34 0.09,0.9 0.034,0.512 0.013,0.361 -0.026,0.085 -0.003,0.001 L 0,0 Z"
           transform="matrix(1,0,0,-1,489.4543,460.5897)" />
        <path
           style="fill:none;stroke:#436c84;stroke-width:1.06700003;stroke-linecap:round;stroke-linejoin:round"
           inkscape:connector-curvature="0"
           id="path1168"
           d="M 0,0 C 0.022,0.635 -0.074,1.248 -0.369,1.656 -0.516,1.861 -0.72,1.988 -0.991,2.041 -1.516,2.145 -2.194,1.964 -2.847,1.794 -3.454,1.634 -4.027,1.482 -4.463,1.568 -4.644,1.604 -4.796,1.682 -4.915,1.796 -5.407,2.263 -5.369,2.893 -5.343,3.313 -5.316,3.754 -5.33,3.757 -5.509,3.793 -5.546,3.8 -5.584,3.805 -5.628,3.808 -6.099,3.839 -6.415,3.351 -6.875,2.55 -7.091,2.173 -7.311,1.79 -7.576,1.482"
           transform="matrix(1,0,0,-1,497.7256,465.051)" />
        <path
           style="fill:none;stroke:#436c84;stroke-width:1.06700003;stroke-linecap:round;stroke-linejoin:round"
           inkscape:connector-curvature="0"
           id="path1170"
           d="m 0,0 c -1.183,0.679 -1.864,2.055 -1.593,3.472 0.339,1.787 2.062,2.957 3.85,2.62 C 3.466,5.861 4.394,4.996 4.764,3.908"
           transform="matrix(1,0,0,-1,493.7015,396.225)" />
        <path
           style="fill:none;stroke:#436c84;stroke-width:1.06700003;stroke-linecap:round;stroke-linejoin:round"
           inkscape:connector-curvature="0"
           id="path1172"
           d="M 0,0 C -1.06,0.203 -1.757,1.228 -1.557,2.288"
           transform="matrix(1,0,0,-1,502.9216,396.137)" />
        <path
           style="fill:none;stroke:#436c84;stroke-width:1.06700003;stroke-linecap:round;stroke-linejoin:round"
           inkscape:connector-curvature="0"
           id="path1174"
           d="M 0,0 C 0.204,1.063 1.227,1.759 2.288,1.557"
           transform="matrix(1,0,0,-1,490.0388,399.6639)" />
        <path
           style="fill:none;stroke:#436c84;stroke-width:1.06700003;stroke-linecap:round;stroke-linejoin:round"
           inkscape:connector-curvature="0"
           id="path1176"
           d="M 0,0 C -1.437,-0.352 -2.884,0.527 -3.234,1.965"
           transform="matrix(1,0,0,-1,498.9341,401.7412)" />
        <path
           style="fill:none;stroke:#436c84;stroke-width:1.06700003;stroke-linecap:round;stroke-linejoin:round"
           inkscape:connector-curvature="0"
           id="path1178"
           d="M 0,0 C -1.064,0.203 -1.761,1.225 -1.557,2.288"
           transform="matrix(1,0,0,-1,496.8413,395.0993)" />
        <path
           style="fill:none;stroke:#436c84;stroke-width:1.06700003;stroke-linecap:round;stroke-linejoin:round"
           inkscape:connector-curvature="0"
           id="path1180"
           d="m 0,0 c -0.802,-1.03 -2.135,-1.581 -3.502,-1.32 -1.311,0.247 -2.319,1.181 -2.724,2.356"
           transform="matrix(1,0,0,-1,498.2888,398.275)" />
        <path
           style="fill:none;stroke:#436c84;stroke-width:1.06700003;stroke-linecap:round;stroke-linejoin:round"
           inkscape:connector-curvature="0"
           id="path1182"
           d="M 0,0 C -0.191,-0.287 -0.329,-0.612 -0.396,-0.97 -0.668,-2.4 0.27,-3.781 1.701,-4.051 L 3.07,-4.194 C 4.595,-4.485 5.595,-5.955 5.306,-7.481 5.016,-9.004 3.542,-10.016 2.019,-9.715 l -0.012,0.003 c -2.009,0.381 -3.986,0.844 -5.925,1.375"
           transform="matrix(1,0,0,-1,497.5126,394.5918)" />
        <path
           style="fill:none;stroke:#436c84;stroke-width:1.06700003;stroke-linecap:round;stroke-linejoin:round"
           inkscape:connector-curvature="0"
           id="path1184"
           d="M 0,0 C 0.418,0.091 0.86,0.101 1.307,0.015 2.916,-0.289 4.027,-1.714 3.987,-3.3"
           transform="matrix(1,0,0,-1,503.0583,391.6806)" />
        <path
           style="fill:none;stroke:#436c84;stroke-width:1.06700003;stroke-linecap:round;stroke-linejoin:round"
           inkscape:connector-curvature="0"
           id="path1186"
           d="m 0,0 c -0.233,0.661 -0.297,1.39 -0.151,2.124 0.415,2.101 2.38,3.501 4.472,3.245"
           transform="matrix(1,0,0,-1,488.0169,396.8629)" />
        <path
           style="fill:none;stroke:#436c84;stroke-width:1.06700003;stroke-linecap:round;stroke-linejoin:round"
           inkscape:connector-curvature="0"
           id="path1188"
           d="m 0,0 c -0.751,-0.745 -1.846,-1.116 -2.962,-0.896 -1.784,0.352 -2.945,2.086 -2.592,3.872 0.257,1.298 1.247,2.268 2.455,2.562"
           transform="matrix(1,0,0,-1,492.884,401.2874)" />
        <path
           style="fill:none;stroke:#436c84;stroke-width:1.06700003;stroke-linecap:round;stroke-linejoin:round"
           inkscape:connector-curvature="0"
           id="path1190"
           d="M 0,0 C 0.407,2.061 2.408,3.401 4.468,2.994 6.169,2.658 7.38,1.237 7.523,-0.407"
           transform="matrix(1,0,0,-1,502.3309,397.9193)" />
        <path
           style="fill:none;stroke:#436c84;stroke-width:1.06700003;stroke-linecap:round;stroke-linejoin:round"
           inkscape:connector-curvature="0"
           id="path1192"
           d="M 0,0 C 0.885,0.451 1.919,0.621 2.969,0.421 4.083,0.208 5.026,-0.384 5.694,-1.197"
           transform="matrix(1,0,0,-1,497.4821,390.7324)" />
        <path
           style="fill:#1b2b3a"
           inkscape:connector-curvature="0"
           id="path1194"
           d="M 0,0 C -0.857,0.848 -0.866,2.228 -0.018,3.089 L 6.34,9.388 4.126,9.887 -2.651,3.148 C -3.499,2.291 -3.49,0.907 -2.632,0.059"
           transform="matrix(1,0,0,-1,491.807,413.4173)" />
        <path
           style="fill:none;stroke:#436c84;stroke-width:1.06700003;stroke-linecap:round;stroke-linejoin:round"
           inkscape:connector-curvature="0"
           id="path1196"
           d="M 0,0 C -0.857,0.848 -0.866,2.228 -0.018,3.089 L 6.34,9.388 4.126,9.887 -2.651,3.148 C -3.499,2.291 -3.49,0.907 -2.632,0.059"
           transform="matrix(1,0,0,-1,491.807,413.4173)" />
        <path
           style="fill:none;stroke:#436c84;stroke-width:1.06700003;stroke-linecap:round;stroke-linejoin:round"
           inkscape:connector-curvature="0"
           id="path1198"
           d="M 0,0 C -1.798,-0.284 -3.484,0.944 -3.768,2.74"
           transform="matrix(1,0,0,-1,493.8371,405.2176)" />
      </g>
      <path
         style="fill:#ffffff"
         inkscape:connector-curvature="0"
         id="path1200"
         d="M 0,0 19.504,-74.19 76.941,-59.089 57.437,15.1 Z"
         transform="matrix(1,0,0,-1,414.2664,398.4481)" />
      <path
         style="fill:none;stroke:#2c3e50;stroke-width:0.61900002;stroke-linecap:butt;stroke-linejoin:miter;stroke-miterlimit:10"
         inkscape:connector-curvature="0"
         id="path1202"
         d="m 0,0 -57.437,-15.101 -19.503,74.19 57.437,15.1 L 0,0 Z"
         stroke-miterlimit="10"
         transform="matrix(1,0,0,-1,491.2065,457.537)" />
      <path
         style="fill:#bdc2c8"
         inkscape:connector-curvature="0"
         id="path1204"
         d="m 0,0 -11.059,-2.908 -0.671,2.555 11.059,2.908 z"
         transform="matrix(1,0,0,-1,443.1526,431.2213)" />
      <path
         style="fill:#bdc2c8"
         inkscape:connector-curvature="0"
         id="path1206"
         d="m 0,0 -3.455,-0.908 -0.672,2.554 3.455,0.909 z"
         transform="matrix(1,0,0,-1,447.7408,430.0154)" />
      <path
         style="fill:#bdc2c8"
         inkscape:connector-curvature="0"
         id="path1208"
         d="m 0,0 -3.459,-0.909 -0.673,2.554 3.461,0.91 z"
         transform="matrix(1,0,0,-1,452.428,428.7831)" />
      <path
         style="fill:#bdc2c8"
         inkscape:connector-curvature="0"
         id="path1210"
         d="m 0,0 -9.693,-2.549 -0.67,2.556 9.692,2.548 z"
         transform="matrix(1,0,0,-1,463.436,425.8889)" />
      <path
         style="fill:#bdc2c8"
         inkscape:connector-curvature="0"
         id="path1212"
         d="m 0,0 -9.693,-2.549 -0.672,2.555 9.694,2.549 z"
         transform="matrix(1,0,0,-1,474.4069,423.0044)" />
      <path
         style="fill:#bdc2c8"
         inkscape:connector-curvature="0"
         id="path1214"
         d="m 0,0 -11.059,-2.907 -0.672,2.552 11.06,2.909 z"
         transform="matrix(1,0,0,-1,459.8547,431.1222)" />
      <path
         style="fill:#bdc2c8"
         inkscape:connector-curvature="0"
         id="path1216"
         d="m 0,0 -3.457,-0.909 -0.67,2.554 3.456,0.909 z"
         transform="matrix(1,0,0,-1,464.4421,429.9164)" />
      <path
         style="fill:#bdc2c8"
         inkscape:connector-curvature="0"
         id="path1218"
         d="M 0,0 -3.459,-0.909 -4.13,1.644 -0.671,2.555 Z"
         transform="matrix(1,0,0,-1,436.608,437.2344)" />
      <path
         style="fill:#bdc2c8"
         inkscape:connector-curvature="0"
         id="path1220"
         d="m 0,0 -9.694,-2.55 -0.671,2.554 9.694,2.549 z"
         transform="matrix(1,0,0,-1,447.7158,434.3128)" />
      <path
         style="fill:#bdc2c8"
         inkscape:connector-curvature="0"
         id="path1222"
         d="m 0,0 -9.693,-2.549 -0.672,2.554 9.694,2.549 z"
         transform="matrix(1,0,0,-1,475.4622,427.019)" />
      <path
         style="fill:#bdc2c8"
         inkscape:connector-curvature="0"
         id="path1224"
         d="m 0,0 -11.055,-2.906 -0.673,2.554 11.057,2.907 z"
         transform="matrix(1,0,0,-1,467.2412,433.4735)" />
      <path
         style="fill:#bdc2c8"
         inkscape:connector-curvature="0"
         id="path1226"
         d="m 0,0 -3.455,-0.909 -0.672,2.555 3.456,0.908 z"
         transform="matrix(1,0,0,-1,471.8301,432.2668)" />
      <path
         style="fill:#bdc2c8"
         inkscape:connector-curvature="0"
         id="path1228"
         d="m 0,0 -3.46,-0.91 -0.673,2.554 3.462,0.91 z"
         transform="matrix(1,0,0,-1,476.5182,431.0345)" />
      <path
         style="fill:#bdc2c8"
         inkscape:connector-curvature="0"
         id="path1230"
         d="m 0,0 -9.694,-2.549 -0.671,2.554 9.694,2.549 z"
         transform="matrix(1,0,0,-1,454.7003,436.7696)" />
      <path
         style="fill:#bdc2c8"
         inkscape:connector-curvature="0"
         id="path1232"
         d="m 0,0 -9.694,-2.549 -0.671,2.554 9.694,2.549 z"
         transform="matrix(1,0,0,-1,443.9259,439.6026)" />
      <path
         style="fill:#bdc2c8"
         inkscape:connector-curvature="0"
         id="path1234"
         d="m 0,0 -11.057,-2.907 -0.673,2.556 11.059,2.907 z"
         transform="matrix(1,0,0,-1,466.6516,437.9207)" />
      <path
         style="fill:#bdc2c8"
         inkscape:connector-curvature="0"
         id="path1236"
         d="m 0,0 -3.457,-0.908 -0.672,2.556 3.458,0.909 z"
         transform="matrix(1,0,0,-1,438.8609,445.2282)" />
      <path
         style="fill:#bdc2c8"
         inkscape:connector-curvature="0"
         id="path1238"
         d="m 0,0 -3.459,-0.911 -0.673,2.557 3.459,0.91 z"
         transform="matrix(1,0,0,-1,443.5473,443.995)" />
      <path
         style="fill:#bdc2c8"
         inkscape:connector-curvature="0"
         id="path1240"
         d="m 0,0 -9.694,-2.55 -0.671,2.557 9.694,2.55 z"
         transform="matrix(1,0,0,-1,454.5578,441.1)" />
      <path
         style="fill:#bdc2c8"
         inkscape:connector-curvature="0"
         id="path1242"
         d="m 0,0 -9.694,-2.548 -0.673,2.556 9.694,2.549 z"
         transform="matrix(1,0,0,-1,477.5742,435.0507)" />
      <path
         style="fill:#bdc2c8"
         inkscape:connector-curvature="0"
         id="path1244"
         d="M 0,0 -11.059,-2.907 -11.73,-0.356 -0.671,2.55 Z"
         transform="matrix(1,0,0,-1,447.3751,447.279)" />
      <path
         style="fill:#bdc2c8"
         inkscape:connector-curvature="0"
         id="path1246"
         d="m 0,0 -42.312,-11.124 -0.335,1.275 42.313,11.125 z"
         transform="matrix(1,0,0,-1,480.1018,444.6691)" />
      <path
         style="fill:#bdc2c8"
         inkscape:connector-curvature="0"
         id="path1248"
         d="m 0,0 -42.312,-11.124 -0.335,1.276 42.312,11.124 z"
         transform="matrix(1,0,0,-1,481.6605,450.5984)" />
      <path
         style="fill:#bdc2c8"
         inkscape:connector-curvature="0"
         id="path1250"
         d="m 0,0 -31.254,-8.218 -0.336,1.275 31.255,8.217 z"
         transform="matrix(1,0,0,-1,482.8188,455.0037)" />
      <path
         style="fill:#bdc2c8"
         inkscape:connector-curvature="0"
         id="path1252"
         d="M 0,0 -3.455,-0.909 -4.126,1.642 -0.671,2.55 Z"
         transform="matrix(1,0,0,-1,451.9616,446.0732)" />
      <path
         style="fill:#bdc2c8"
         inkscape:connector-curvature="0"
         id="path1254"
         d="M 0,0 -3.456,-0.91 -4.127,1.641 -0.671,2.55 Z"
         transform="matrix(1,0,0,-1,467.6085,441.9595)" />
      <path
         style="fill:#bdc2c8"
         inkscape:connector-curvature="0"
         id="path1256"
         d="m 0,0 -9.694,-2.548 -0.671,2.551 9.694,2.548 z"
         transform="matrix(1,0,0,-1,462.8134,443.2209)" />
      <path
         style="fill:#bdc2c8"
         inkscape:connector-curvature="0"
         id="path1258"
         d="m 0,0 -9.693,-2.549 -0.67,2.551 9.693,2.549 z"
         transform="matrix(1,0,0,-1,478.6278,439.0629)" />
      <path
         style="fill:#bdc2c8"
         inkscape:connector-curvature="0"
         id="path1260"
         d="m 0,0 -11.059,-2.907 -0.671,2.552 11.059,2.908 z"
         transform="matrix(1,0,0,-1,437.6768,410.391)" />
      <path
         style="fill:#bdc2c8"
         inkscape:connector-curvature="0"
         id="path1262"
         d="m 0,0 -3.455,-0.909 -0.672,2.553 3.456,0.909 z"
         transform="matrix(1,0,0,-1,442.2642,409.1852)" />
      <path
         style="fill:#bdc2c8"
         inkscape:connector-curvature="0"
         id="path1264"
         d="m 0,0 -3.459,-0.91 -0.672,2.552 3.46,0.911 z"
         transform="matrix(1,0,0,-1,446.9514,407.9528)" />
      <path
         style="fill:#bdc2c8"
         inkscape:connector-curvature="0"
         id="path1266"
         d="m 0,0 -9.693,-2.547 -0.669,2.552 9.691,2.548 z"
         transform="matrix(1,0,0,-1,457.9594,405.0593)" />
      <path
         style="fill:#bdc2c8"
         inkscape:connector-curvature="0"
         id="path1268"
         d="m 0,0 -9.693,-2.548 -0.671,2.552 9.693,2.549 z"
         transform="matrix(1,0,0,-1,468.9304,402.1749)" />
      <path
         style="fill:#bdc2c8"
         inkscape:connector-curvature="0"
         id="path1270"
         d="m 0,0 -11.059,-2.907 -0.671,2.552 11.059,2.908 z"
         transform="matrix(1,0,0,-1,454.379,410.2919)" />
      <path
         style="fill:#bdc2c8"
         inkscape:connector-curvature="0"
         id="path1272"
         d="m 0,0 -3.456,-0.909 -0.672,2.553 3.457,0.909 z"
         transform="matrix(1,0,0,-1,458.9655,409.0861)" />
      <path
         style="fill:#bdc2c8"
         inkscape:connector-curvature="0"
         id="path1274"
         d="m 0,0 -3.457,-0.91 -0.672,2.553 3.458,0.91 z"
         transform="matrix(1,0,0,-1,431.1313,416.4033)" />
      <path
         style="fill:#bdc2c8"
         inkscape:connector-curvature="0"
         id="path1276"
         d="m 0,0 -9.694,-2.549 -0.671,2.553 9.694,2.549 z"
         transform="matrix(1,0,0,-1,442.2401,413.4833)" />
      <path
         style="fill:#bdc2c8"
         inkscape:connector-curvature="0"
         id="path1278"
         d="m 0,0 -9.693,-2.549 -0.672,2.553 9.694,2.548 z"
         transform="matrix(1,0,0,-1,469.9856,406.1887)" />
      <path
         style="fill:#bdc2c8"
         inkscape:connector-curvature="0"
         id="path1280"
         d="m 0,0 -11.055,-2.906 -0.673,2.551 11.057,2.908 z"
         transform="matrix(1,0,0,-1,461.7654,412.6424)" />
      <path
         style="fill:#bdc2c8"
         inkscape:connector-curvature="0"
         id="path1282"
         d="m 0,0 -3.455,-0.909 -0.672,2.553 3.456,0.909 z"
         transform="matrix(1,0,0,-1,466.3543,411.4357)" />
      <path
         style="fill:#bdc2c8"
         inkscape:connector-curvature="0"
         id="path1284"
         d="m 0,0 -3.46,-0.91 -0.672,2.552 3.462,0.91 z"
         transform="matrix(1,0,0,-1,471.0408,410.2033)" />
      <path
         style="fill:#bdc2c8"
         inkscape:connector-curvature="0"
         id="path1286"
         d="m 0,0 -9.693,-2.548 -0.67,2.552 9.693,2.548 z"
         transform="matrix(1,0,0,-1,449.2229,415.9393)" />
      <path
         style="fill:#bdc2c8"
         inkscape:connector-curvature="0"
         id="path1288"
         d="m 0,0 -9.693,-2.549 -0.671,2.552 9.693,2.549 z"
         transform="matrix(1,0,0,-1,438.4501,418.7715)" />
      <path
         style="fill:#bdc2c8"
         inkscape:connector-curvature="0"
         id="path1290"
         d="m 0,0 -11.058,-2.907 -0.671,2.552 11.058,2.907 z"
         transform="matrix(1,0,0,-1,461.1758,417.0904)" />
      <path
         style="fill:#bdc2c8"
         inkscape:connector-curvature="0"
         id="path1292"
         d="m 0,0 -3.456,-0.909 -0.671,2.552 3.456,0.909 z"
         transform="matrix(1,0,0,-1,433.3843,424.3963)" />
      <path
         style="fill:#bdc2c8"
         inkscape:connector-curvature="0"
         id="path1294"
         d="M 0,0 -3.459,-0.91 -4.13,1.643 -0.671,2.552 Z"
         transform="matrix(1,0,0,-1,438.0707,423.1646)" />
      <path
         style="fill:#bdc2c8"
         inkscape:connector-curvature="0"
         id="path1296"
         d="m 0,0 -9.695,-2.549 -0.67,2.553 9.694,2.548 z"
         transform="matrix(1,0,0,-1,449.0828,420.2697)" />
      <path
         style="fill:#bdc2c8"
         inkscape:connector-curvature="0"
         id="path1298"
         d="m 0,0 -9.693,-2.548 -0.671,2.552 9.693,2.549 z"
         transform="matrix(1,0,0,-1,472.0967,414.2195)" />
      <path
         style="fill:#bdc2c8"
         inkscape:connector-curvature="0"
         id="path1300"
         d="m 0,0 -11.057,-2.908 -0.671,2.552 11.058,2.907 z"
         transform="matrix(1,0,0,-1,441.8976,426.4503)" />
      <path
         style="fill:#bdc2c8"
         inkscape:connector-curvature="0"
         id="path1302"
         d="m 0,0 -31.255,-8.217 -0.334,1.274 31.254,8.217 z"
         transform="matrix(1,0,0,-1,481.0129,448.132)" />
      <path
         style="fill:#bdc2c8"
         inkscape:connector-curvature="0"
         id="path1304"
         d="M 0,0 -3.455,-0.909 -4.126,1.642 -0.67,2.551 Z"
         transform="matrix(1,0,0,-1,446.4858,425.2437)" />
      <path
         style="fill:#bdc2c8"
         inkscape:connector-curvature="0"
         id="path1306"
         d="m 0,0 -3.457,-0.91 -0.67,2.552 3.457,0.909 z"
         transform="matrix(1,0,0,-1,462.1319,421.1307)" />
      <path
         style="fill:#bdc2c8"
         inkscape:connector-curvature="0"
         id="path1308"
         d="m 0,0 -9.694,-2.549 -0.671,2.552 9.694,2.548 z"
         transform="matrix(1,0,0,-1,457.3376,422.3914)" />
      <path
         style="fill:#bdc2c8"
         inkscape:connector-curvature="0"
         id="path1310"
         d="m 0,0 -9.693,-2.549 -0.67,2.551 9.693,2.549 z"
         transform="matrix(1,0,0,-1,473.1519,418.2333)" />
      <path
         style="fill:#ffffff"
         inkscape:connector-curvature="0"
         id="path1312"
         d="m 0,0 -59.094,-5.912 -7.633,76.33 59.092,5.911 z"
         transform="matrix(1,0,0,-1,492.7692,463.2014)" />
      <path
         style="fill:none;stroke:#2c3e50;stroke-width:0.61900002;stroke-linecap:butt;stroke-linejoin:miter;stroke-miterlimit:10"
         inkscape:connector-curvature="0"
         id="path1314"
         d="m 0,0 -59.094,-5.912 -7.633,76.33 59.092,5.911 L 0,0 Z"
         stroke-miterlimit="10"
         transform="matrix(1,0,0,-1,492.7692,463.2014)" />
      <path
         style="fill:#bdc2c8"
         inkscape:connector-curvature="0"
         id="path1316"
         d="M 0,0 -11.378,-1.138 -11.64,1.49 -0.262,2.628 Z"
         transform="matrix(1,0,0,-1,449.434,429.6796)" />
      <path
         style="fill:#bdc2c8"
         inkscape:connector-curvature="0"
         id="path1318"
         d="m 0,0 -3.556,-0.356 -0.263,2.629 3.556,0.356 z"
         transform="matrix(1,0,0,-1,454.1542,429.2075)" />
      <path
         style="fill:#bdc2c8"
         inkscape:connector-curvature="0"
         id="path1320"
         d="m 0,0 -3.559,-0.356 -0.264,2.628 3.56,0.357 z"
         transform="matrix(1,0,0,-1,458.9767,428.7251)" />
      <path
         style="fill:#bdc2c8"
         inkscape:connector-curvature="0"
         id="path1322"
         d="m 0,0 -9.972,-0.998 -0.263,2.629 9.972,0.997 z"
         transform="matrix(1,0,0,-1,470.3022,427.5917)" />
      <path
         style="fill:#bdc2c8"
         inkscape:connector-curvature="0"
         id="path1324"
         d="m 0,0 -9.973,-0.997 -0.263,2.629 9.973,0.997 z"
         transform="matrix(1,0,0,-1,481.5896,426.4632)" />
      <path
         style="fill:#bdc2c8"
         inkscape:connector-curvature="0"
         id="path1326"
         d="m 0,0 -11.378,-1.138 -0.263,2.627 11.379,1.138 z"
         transform="matrix(1,0,0,-1,465.9451,432.1992)" />
      <path
         style="fill:#bdc2c8"
         inkscape:connector-curvature="0"
         id="path1328"
         d="m 0,0 -3.557,-0.356 -0.262,2.628 3.557,0.355 z"
         transform="matrix(1,0,0,-1,470.6646,431.7271)" />
      <path
         style="fill:#bdc2c8"
         inkscape:connector-curvature="0"
         id="path1330"
         d="m 0,0 -3.558,-0.356 -0.263,2.627 3.559,0.356 z"
         transform="matrix(1,0,0,-1,442.0274,434.5916)" />
      <path
         style="fill:#bdc2c8"
         inkscape:connector-curvature="0"
         id="path1332"
         d="m 0,0 -9.974,-0.998 -0.262,2.628 9.974,0.997 z"
         transform="matrix(1,0,0,-1,453.4558,433.4485)" />
      <path
         style="fill:#bdc2c8"
         inkscape:connector-curvature="0"
         id="path1334"
         d="m 0,0 -9.974,-0.998 -0.262,2.628 9.973,0.997 z"
         transform="matrix(1,0,0,-1,482.0028,430.593)" />
      <path
         style="fill:#bdc2c8"
         inkscape:connector-curvature="0"
         id="path1336"
         d="M 0,0 -11.375,-1.137 -11.638,1.49 -0.263,2.628 Z"
         transform="matrix(1,0,0,-1,472.8725,435.6789)" />
      <path
         style="fill:#bdc2c8"
         inkscape:connector-curvature="0"
         id="path1338"
         d="m 0,0 -3.555,-0.355 -0.263,2.627 3.555,0.356 z"
         transform="matrix(1,0,0,-1,477.5935,435.207)" />
      <path
         style="fill:#bdc2c8"
         inkscape:connector-curvature="0"
         id="path1340"
         d="m 0,0 -3.56,-0.357 -0.264,2.628 3.561,0.356 z"
         transform="matrix(1,0,0,-1,482.4161,434.7236)" />
      <path
         style="fill:#bdc2c8"
         inkscape:connector-curvature="0"
         id="path1342"
         d="m 0,0 -9.974,-0.998 -0.262,2.628 9.973,0.998 z"
         transform="matrix(1,0,0,-1,459.9691,436.9694)" />
      <path
         style="fill:#bdc2c8"
         inkscape:connector-curvature="0"
         id="path1344"
         d="m 0,0 -9.973,-0.997 -0.262,2.627 9.973,0.998 z"
         transform="matrix(1,0,0,-1,448.8839,438.0786)" />
      <path
         style="fill:#bdc2c8"
         inkscape:connector-curvature="0"
         id="path1346"
         d="m 0,0 -11.376,-1.138 -0.263,2.63 11.377,1.138 z"
         transform="matrix(1,0,0,-1,471.5925,439.9796)" />
      <path
         style="fill:#bdc2c8"
         inkscape:connector-curvature="0"
         id="path1348"
         d="M 0,0 -3.556,-0.355 -3.819,2.274 -0.262,2.63 Z"
         transform="matrix(1,0,0,-1,442.9996,442.8399)" />
      <path
         style="fill:#bdc2c8"
         inkscape:connector-curvature="0"
         id="path1350"
         d="m 0,0 -3.558,-0.356 -0.264,2.63 3.559,0.356 z"
         transform="matrix(1,0,0,-1,447.8214,442.3574)" />
      <path
         style="fill:#bdc2c8"
         inkscape:connector-curvature="0"
         id="path1352"
         d="m 0,0 -9.974,-0.998 -0.262,2.63 9.974,0.998 z"
         transform="matrix(1,0,0,-1,459.15,441.2241)" />
      <path
         style="fill:#bdc2c8"
         inkscape:connector-curvature="0"
         id="path1354"
         d="m 0,0 -9.974,-0.997 -0.262,2.629 9.973,0.998 z"
         transform="matrix(1,0,0,-1,482.8293,438.8559)" />
      <path
         style="fill:#bdc2c8"
         inkscape:connector-curvature="0"
         id="path1356"
         d="M 0,0 -11.378,-1.138 -11.64,1.486 -0.262,2.625 Z"
         transform="matrix(1,0,0,-1,451.0869,446.2004)" />
      <path
         style="fill:#bdc2c8"
         inkscape:connector-curvature="0"
         id="path1358"
         d="m 0,0 -43.533,-4.354 -0.132,1.311 43.534,4.355 z"
         transform="matrix(1,0,0,-1,483.8193,448.7522)" />
      <path
         style="fill:#bdc2c8"
         inkscape:connector-curvature="0"
         id="path1360"
         d="m 0,0 -43.532,-4.355 -0.132,1.313 43.533,4.354 z"
         transform="matrix(1,0,0,-1,484.429,454.8523)" />
      <path
         style="fill:#bdc2c8"
         inkscape:connector-curvature="0"
         id="path1362"
         d="m 0,0 -32.155,-3.217 -0.132,1.311 32.156,3.217 z"
         transform="matrix(1,0,0,-1,484.8825,459.3849)" />
      <path
         style="fill:#bdc2c8"
         inkscape:connector-curvature="0"
         id="path1364"
         d="m 0,0 -3.556,-0.356 -0.262,2.624 3.556,0.357 z"
         transform="matrix(1,0,0,-1,455.8063,445.7284)" />
      <path
         style="fill:#bdc2c8"
         inkscape:connector-curvature="0"
         id="path1366"
         d="m 0,0 -3.557,-0.356 -0.262,2.624 3.557,0.357 z"
         transform="matrix(1,0,0,-1,471.9042,444.1182)" />
      <path
         style="fill:#bdc2c8"
         inkscape:connector-curvature="0"
         id="path1368"
         d="m 0,0 -9.974,-0.997 -0.262,2.624 9.974,0.998 z"
         transform="matrix(1,0,0,-1,466.9706,444.612)" />
      <path
         style="fill:#bdc2c8"
         inkscape:connector-curvature="0"
         id="path1370"
         d="m 0,0 -9.973,-0.998 -0.262,2.625 9.973,0.998 z"
         transform="matrix(1,0,0,-1,483.2417,442.9841)" />
      <path
         style="fill:#bdc2c8"
         inkscape:connector-curvature="0"
         id="path1372"
         d="M 0,0 -11.378,-1.138 -11.64,1.488 -0.263,2.626 Z"
         transform="matrix(1,0,0,-1,447.2905,408.2484)" />
      <path
         style="fill:#bdc2c8"
         inkscape:connector-curvature="0"
         id="path1374"
         d="m 0,0 -3.555,-0.356 -0.263,2.627 3.556,0.355 z"
         transform="matrix(1,0,0,-1,452.0099,407.7763)" />
      <path
         style="fill:#bdc2c8"
         inkscape:connector-curvature="0"
         id="path1376"
         d="m 0,0 -3.558,-0.356 -0.264,2.626 3.56,0.356 z"
         transform="matrix(1,0,0,-1,456.8325,407.2938)" />
      <path
         style="fill:#bdc2c8"
         inkscape:connector-curvature="0"
         id="path1378"
         d="m 0,0 -9.971,-0.997 -0.263,2.626 9.972,0.998 z"
         transform="matrix(1,0,0,-1,468.1579,406.1613)" />
      <path
         style="fill:#bdc2c8"
         inkscape:connector-curvature="0"
         id="path1380"
         d="m 0,0 -9.973,-0.997 -0.262,2.626 9.973,0.997 z"
         transform="matrix(1,0,0,-1,479.4453,405.032)" />
      <path
         style="fill:#bdc2c8"
         inkscape:connector-curvature="0"
         id="path1382"
         d="m 0,0 -11.379,-1.138 -0.262,2.626 11.379,1.138 z"
         transform="matrix(1,0,0,-1,463.8017,410.7679)" />
      <path
         style="fill:#bdc2c8"
         inkscape:connector-curvature="0"
         id="path1384"
         d="M 0,0 -3.555,-0.356 -3.819,2.27 -0.262,2.626 Z"
         transform="matrix(1,0,0,-1,468.5203,410.296)" />
      <path
         style="fill:#bdc2c8"
         inkscape:connector-curvature="0"
         id="path1386"
         d="m 0,0 -3.558,-0.356 -0.263,2.627 3.559,0.356 z"
         transform="matrix(1,0,0,-1,439.8839,413.1611)" />
      <path
         style="fill:#bdc2c8"
         inkscape:connector-curvature="0"
         id="path1388"
         d="m 0,0 -9.974,-0.998 -0.262,2.626 9.974,0.998 z"
         transform="matrix(1,0,0,-1,451.3124,412.0173)" />
      <path
         style="fill:#bdc2c8"
         inkscape:connector-curvature="0"
         id="path1390"
         d="m 0,0 -9.973,-0.998 -0.262,2.626 9.973,0.998 z"
         transform="matrix(1,0,0,-1,479.8586,409.1618)" />
      <path
         style="fill:#bdc2c8"
         inkscape:connector-curvature="0"
         id="path1392"
         d="m 0,0 -11.374,-1.137 -0.263,2.625 11.375,1.138 z"
         transform="matrix(1,0,0,-1,470.7283,414.2469)" />
      <path
         style="fill:#bdc2c8"
         inkscape:connector-curvature="0"
         id="path1394"
         d="m 0,0 -3.555,-0.355 -0.262,2.626 3.555,0.355 z"
         transform="matrix(1,0,0,-1,475.4493,413.775)" />
      <path
         style="fill:#bdc2c8"
         inkscape:connector-curvature="0"
         id="path1396"
         d="M 0,0 -3.56,-0.356 -3.823,2.27 -0.262,2.626 Z"
         transform="matrix(1,0,0,-1,480.2719,413.2924)" />
      <path
         style="fill:#bdc2c8"
         inkscape:connector-curvature="0"
         id="path1398"
         d="m 0,0 -9.973,-0.998 -0.262,2.626 9.973,0.997 z"
         transform="matrix(1,0,0,-1,457.8249,415.5374)" />
      <path
         style="fill:#bdc2c8"
         inkscape:connector-curvature="0"
         id="path1400"
         d="m 0,0 -9.973,-0.997 -0.262,2.625 9.973,0.998 z"
         transform="matrix(1,0,0,-1,446.7403,416.6465)" />
      <path
         style="fill:#bdc2c8"
         inkscape:connector-curvature="0"
         id="path1402"
         d="m 0,0 -11.377,-1.138 -0.262,2.625 11.377,1.138 z"
         transform="matrix(1,0,0,-1,469.4491,418.5475)" />
      <path
         style="fill:#bdc2c8"
         inkscape:connector-curvature="0"
         id="path1404"
         d="M 0,0 -3.557,-0.356 -3.819,2.27 -0.262,2.626 Z"
         transform="matrix(1,0,0,-1,440.8561,421.4079)" />
      <path
         style="fill:#bdc2c8"
         inkscape:connector-curvature="0"
         id="path1406"
         d="M 0,0 -3.558,-0.356 -3.821,2.27 -0.262,2.626 Z"
         transform="matrix(1,0,0,-1,445.6771,420.9262)" />
      <path
         style="fill:#bdc2c8"
         inkscape:connector-curvature="0"
         id="path1408"
         d="m 0,0 -9.974,-0.997 -0.262,2.626 9.974,0.997 z"
         transform="matrix(1,0,0,-1,457.0065,419.7928)" />
      <path
         style="fill:#bdc2c8"
         inkscape:connector-curvature="0"
         id="path1410"
         d="m 0,0 -9.973,-0.998 -0.262,2.626 9.973,0.998 z"
         transform="matrix(1,0,0,-1,480.6851,417.4239)" />
      <path
         style="fill:#bdc2c8"
         inkscape:connector-curvature="0"
         id="path1412"
         d="m 0,0 -11.377,-1.138 -0.262,2.625 11.377,1.138 z"
         transform="matrix(1,0,0,-1,448.9426,424.7708)" />
      <path
         style="fill:#bdc2c8"
         inkscape:connector-curvature="0"
         id="path1414"
         d="m 0,0 -32.155,-3.216 -0.131,1.309 32.155,3.218 z"
         transform="matrix(1,0,0,-1,484.1753,452.315)" />
      <path
         style="fill:#bdc2c8"
         inkscape:connector-curvature="0"
         id="path1416"
         d="m 0,0 -3.556,-0.356 -0.262,2.625 3.556,0.356 z"
         transform="matrix(1,0,0,-1,453.6628,424.2988)" />
      <path
         style="fill:#bdc2c8"
         inkscape:connector-curvature="0"
         id="path1418"
         d="m 0,0 -3.557,-0.356 -0.262,2.625 3.557,0.356 z"
         transform="matrix(1,0,0,-1,469.76,422.6886)" />
      <path
         style="fill:#bdc2c8"
         inkscape:connector-curvature="0"
         id="path1420"
         d="m 0,0 -9.974,-0.998 -0.262,2.625 9.974,0.998 z"
         transform="matrix(1,0,0,-1,464.8271,423.1816)" />
      <path
         style="fill:#bdc2c8"
         inkscape:connector-curvature="0"
         id="path1422"
         d="m 0,0 -9.973,-0.997 -0.262,2.624 9.973,0.998 z"
         transform="matrix(1,0,0,-1,481.0982,421.5545)" />
    </g>
  </g>
  <g
     data-name="H3"
     id="g1561"
     transform="translate(-177.00302,-187.7219)" />
  <g
     data-name="Artifact"
     id="g1584"
     transform="translate(-177.00302,-187.7219)" />
  <g
     data-name="H3"
     id="g1615"
     transform="translate(-177.00302,-187.7219)" />
  <g
     data-name="H3"
     id="g1639"
     transform="translate(-177.00302,-187.7219)" />
  <g
     data-name="H3"
     id="g1649"
     transform="translate(-177.00302,-187.7219)" />
</svg>
